<svg width="1556" height="261" viewBox="0 0 1556 261" fill="none" xmlns="http://www.w3.org/2000/svg">
<path d="M125 15V237.222" stroke="#F5F5F5" stroke-width="30" stroke-linecap="round"/>
<path d="M125 15L212.558 73.3718C230.37 85.2465 230.37 111.42 212.558 123.295L125 181.667" stroke="#FFA116" stroke-width="30" stroke-linecap="round"/>
<path d="M125 237.222L37.4423 178.85C19.6303 166.976 19.6303 140.802 37.4423 128.927L125 70.5555" stroke="#FFA116" stroke-width="30" stroke-linecap="round"/>
<path d="M125 70.5555V181.667" stroke="#F5F5F5" stroke-width="30" stroke-linecap="square"/>
<path d="M405 206H446.538C458.943 206 469 195.943 469 183.538V183.538C469 173.231 461.985 164.246 451.986 161.746L422.014 154.254C412.015 151.754 405 142.769 405 132.462V132.462C405 120.057 415.057 110 427.462 110H469" stroke="#F5F5F5" stroke-width="30" stroke-linecap="round"/>
<path d="M1477 206H1518.54C1530.94 206 1541 195.943 1541 183.538V183.538C1541 173.231 1533.99 164.246 1523.99 161.746L1494.01 154.254C1484.01 151.754 1477 142.769 1477 132.462V132.462C1477 120.057 1487.06 110 1499.46 110H1541" stroke="#F5F5F5" stroke-width="30" stroke-linecap="round"/>
<path d="M506 110L554 190" stroke="#F5F5F5" stroke-width="30" stroke-linecap="round"/>
<path d="M681 110H647C630.431 110 617 123.431 617 140V176C617 192.569 630.431 206 647 206H681" stroke="#F5F5F5" stroke-width="30" stroke-linecap="round"/>
<path d="M1016 46H966C949.431 46 936 59.4315 936 76V176C936 192.569 949.431 206 966 206H1016" stroke="#F5F5F5" stroke-width="30" stroke-linecap="round"/>
<path d="M718 206V46" stroke="#F5F5F5" stroke-width="30" stroke-linecap="round"/>
<path d="M718 110L759.276 120.319C772.631 123.658 782 135.657 782 149.423V206" stroke="#F5F5F5" stroke-width="30" stroke-linecap="round"/>
<path d="M819 140V176C819 192.569 832.431 206 849 206H869C885.569 206 899 192.569 899 176V140C899 123.431 885.569 110 869 110H849C832.431 110 819 123.431 819 140Z" stroke="#F5F5F5" stroke-width="30" stroke-linecap="round"/>
<path d="M1046 140V176C1046 192.569 1059.43 206 1076 206H1096C1112.57 206 1126 192.569 1126 176V140C1126 123.431 1112.57 110 1096 110H1076C1059.43 110 1046 123.431 1046 140Z" stroke="#F5F5F5" stroke-width="30" stroke-linecap="round"/>
<path d="M586 110L554 190L537.792 227.818C533.065 238.848 522.219 246 510.218 246H506" stroke="#F5F5F5" stroke-width="30" stroke-linecap="round"/>
<path d="M293 206V142M293 142V76C293 59.4315 306.431 46 323 46H343C359.569 46 373 59.4315 373 76V101.406C373 115.706 362.906 128.019 348.883 130.823L293.921 141.816L293 142Z" stroke="#F5F5F5" stroke-width="30" stroke-linecap="round"/>
<path d="M1243 46V110M1243 110V176C1243 192.569 1229.57 206 1213 206H1193C1176.43 206 1163 192.569 1163 176V150.594C1163 136.294 1173.09 123.981 1187.12 121.177L1242.08 110.184L1243 110Z" stroke="#F5F5F5" stroke-width="30" stroke-linecap="round"/>
<path d="M1280 166L1342.33 153.534C1352.6 151.479 1360 142.458 1360 131.98V131.98C1360 119.841 1350.16 110 1338.02 110H1310C1293.43 110 1280 123.431 1280 140V176C1280 192.569 1293.43 206 1310 206H1360" stroke="#F5F5F5" stroke-width="30" stroke-linecap="round"/>
<path d="M1397 206V140C1397 123.431 1410.43 110 1427 110H1445" stroke="#F5F5F5" stroke-width="30" stroke-linecap="round"/>
</svg>
